<svg xmlns="http://www.w3.org/2000/svg" version="1.1" xmlns:xlink="http://www.w3.org/1999/xlink" width="1500" height="1500" viewBox="0 0 1500 1500"><rect width="1500" height="1500" x="0" y="0" id="background" stroke="transparent" fill="#ffffff"></rect><svg xml:space="preserve" width="1000" height="1000" data-version="2" data-id="lg_K967TgchLn4xe1CRe5" viewBox="0 0 353 169" x="250" y="250"><rect width="100%" height="100%" fill="transparent"></rect><path fill="#5771ff" d="M128.73 63.85q-7.82 0-13.43-2.73-5.61-2.72-9.16-7.18-3.56-4.47-5.26-9.64-1.7-5.18-1.7-10.07v-1.74q0-5.37 1.74-10.63 1.74-5.25 5.34-9.52 3.59-4.26 9.08-6.83 5.49-2.57 13-2.57 7.82 0 13.82 2.92 6 2.93 9.6 8.1 3.59 5.18 4.23 12.13h-13.04q-.55-3.48-2.53-5.93-1.97-2.45-5.09-3.79-3.12-1.34-6.99-1.34-3.88 0-6.88 1.34t-5.01 3.79q-2.02 2.45-3.08 5.81-1.07 3.36-1.07 7.47 0 4.02 1.07 7.38 1.06 3.36 3.16 5.85 2.09 2.49 5.17 3.79 3.08 1.3 7.03 1.3 6 0 10.15-2.92t5.02-8.06h12.95q-.71 6.32-4.22 11.58-3.52 5.25-9.56 8.37-6.04 3.12-14.34 3.12m48.66-1.5h-12.64V4.68h12.64v33.26h-1.89q0-6.56 1.66-11.06 1.66-4.5 4.9-6.84 3.23-2.33 8.13-2.33h.56q7.18 0 10.98 5.1 3.79 5.1 3.79 14.89v24.65h-12.64V36.91q0-3.55-2.09-5.73-2.1-2.17-5.5-2.17-3.55 0-5.72 2.29-2.18 2.29-2.18 6.09zm53.57 0h-12.64V19.06h12.64zm0-33.97h-18.41v-9.32h18.41zm-7.75-13.59q-3.55 0-5.25-1.86-1.7-1.85-1.7-4.7 0-2.92 1.7-4.78 1.7-1.85 5.25-1.85 3.56 0 5.26 1.85 1.7 1.86 1.7 4.78 0 2.85-1.7 4.7-1.7 1.86-5.26 1.86M268.4 62.9h-6.08q-6.56 0-10.59-1.62t-5.88-5.45q-1.86-3.83-1.86-10.39V7.37h11.77v38.55q0 3.08 1.62 4.7t4.62 1.62h6.4zm0-34.6h-30.97v-9.24h30.97zm34.29 34.6h-6.08q-6.56 0-10.59-1.62t-5.89-5.45q-1.85-3.83-1.85-10.39V7.37h11.77v38.55q0 3.08 1.62 4.7t4.62 1.62h6.4zm0-34.6h-30.97v-9.24h30.97zm15.8 51.19h-7.74V68.75h9q2.06 0 3.48-.52 1.42-.51 2.29-1.69.87-1.19 1.42-3.24l10.67-44.24h12l-12.08 46.77q-1.27 5.05-3.52 8.05-2.25 3.01-6 4.31-3.75 1.3-9.52 1.3M333.5 61.4h-9.17v-9.87h9.17zm-2.37 0h-12.01l-13.27-42.34h12.72zm-202.4 106q-7.82 0-13.43-2.72-5.61-2.73-9.16-7.19-3.56-4.46-5.26-9.64-1.7-5.17-1.7-10.07v-1.74q0-5.37 1.74-10.63 1.74-5.25 5.34-9.51 3.59-4.27 9.08-6.84 5.49-2.57 13-2.57 7.82 0 13.82 2.93 6 2.92 9.6 8.09 3.59 5.18 4.23 12.13h-13.04q-.55-3.47-2.53-5.92-1.97-2.45-5.09-3.8-3.12-1.34-6.99-1.34-3.88 0-6.88 1.34-3 1.35-5.01 3.8-2.02 2.45-3.08 5.8-1.07 3.36-1.07 7.47 0 4.03 1.07 7.38 1.06 3.36 3.16 5.85 2.09 2.49 5.17 3.79 3.08 1.31 7.03 1.31 6 0 10.15-2.93 4.15-2.92 5.02-8.05h12.95q-.71 6.32-4.22 11.57-3.52 5.25-9.56 8.37-6.04 3.12-14.34 3.12m48.66-1.5h-12.64v-57.67h12.64v33.26h-1.89q0-6.56 1.66-11.06 1.66-4.5 4.9-6.83 3.23-2.33 8.13-2.33h.56q7.18 0 10.98 5.09 3.79 5.1 3.79 14.89v24.65h-12.64v-25.44q0-3.55-2.09-5.72-2.1-2.18-5.5-2.18-3.55 0-5.72 2.3-2.18 2.29-2.18 6.08zm75.05 0h-10.03v-12.8h-2.13v-13.9q0-3.32-1.58-4.98-1.58-1.66-5.06-1.66-1.74 0-4.58.08t-5.85.24q-3 .16-5.45.32v-10.67q1.82-.16 4.27-.31 2.45-.16 5.06-.24 2.6-.08 4.89-.08 6.64 0 11.18 1.9 4.54 1.89 6.91 5.72t2.37 9.84zm-23.85 1.11q-4.66 0-8.18-1.66-3.52-1.66-5.49-4.78-1.98-3.12-1.98-7.47 0-4.74 2.45-7.78t6.88-4.5q4.42-1.46 10.19-1.46h9.24v7.03h-9.32q-3.32 0-5.1 1.62-1.77 1.62-1.77 4.38 0 2.61 1.77 4.23 1.78 1.62 5.1 1.62 2.13 0 3.83-.75 1.7-.75 2.8-2.57 1.11-1.82 1.27-5.05l3 3.16q-.39 4.5-2.17 7.58-1.78 3.08-4.9 4.74-3.12 1.66-7.62 1.66m60.35-.55h-6.08q-6.56 0-10.59-1.62t-5.88-5.46q-1.86-3.83-1.86-10.38v-38.08h11.77v38.55q0 3.08 1.62 4.7t4.62 1.62h6.4zm0-34.61h-30.97v-9.24h30.97z" paint-order="stroke"></path><path fill="#5771ff" d="M56.759 29.296a20.05 20.05 0 0 1-1.815 7.987c5.917.986 5.97 5.812 5.97 8.007 0 2.038 0 8.218-8.211 8.218h-8.225a16.435 16.435 0 0 0-13.148 6.58c-1.985-1.511-3.287-3.898-3.287-6.58V45.29c0-1.623.29-2.905.737-3.957-.237-.046-.48-.151-.736-.151h-7.797q-.401 1.906-.414 4.109v8.217c0 9.074 7.354 16.431 16.428 16.435a8.22 8.22 0 0 1 8.217-8.217h8.225c8.21 0 16.428-4.622 16.428-16.435 0-10.052-5.72-14.707-12.372-15.995"></path><path fill="#5771ff" d="M36.261 12.42c3.063 0 8.217 1.065 8.217 8.218v8.217a8.233 8.233 0 0 1-3.287 6.574 16.435 16.435 0 0 0-13.148-6.574h-8.21c-8.224 0-8.224-6.18-8.224-8.217 0-2.452 0-8.218 8.224-8.218zm0-8.217H19.833c-8.224 0-16.442 4.365-16.442 16.435 0 11.813 8.217 16.435 16.442 16.435h8.21a8.22 8.22 0 0 1 8.218 8.218c9.072 0 16.442-7.363 16.442-16.435v-8.218c0-11.34-8.225-16.435-16.442-16.435"></path></svg></svg>